<?xml version="1.0" standalone="no"?>
<!DOCTYPE svg PUBLIC "-//W3C//DTD SVG 20010904//EN"
 "http://www.w3.org/TR/2001/REC-SVG-20010904/DTD/svg10.dtd">
<svg version="1.0" xmlns="http://www.w3.org/2000/svg"
 width="768.000000pt" height="768.000000pt" viewBox="0 0 768.000000 768.000000"
 preserveAspectRatio="xMidYMid meet">
<metadata>
Created by potrace 1.15, written by Peter Selinger 2001-2017
</metadata>
<g transform="translate(0.000000,768.000000) scale(0.100000,-0.100000)"
fill="#000000" stroke="none">
<path d="M5860 7081 c0 -14 27 -21 80 -21 78 0 67 -18 -15 -25 -51 -5 -79 -4
-89 4 -36 30 -226 56 -226 31 0 -5 6 -10 13 -10 7 0 6 -4 -4 -10 -14 -8 -74
-5 -254 16 l-50 6 25 -22 25 -21 -75 5 c-41 3 -113 8 -159 12 -67 5 -82 4 -76
-6 7 -11 -17 -12 -123 -7 -101 5 -131 3 -129 -6 2 -14 -115 -17 -170 -5 -24 5
-37 3 -49 -9 -18 -18 -24 -18 -194 -9 -58 3 -94 2 -80 -2 l25 -8 -23 -6 c-13
-4 -73 -4 -134 -1 -83 5 -109 3 -104 -5 5 -8 -3 -12 -26 -12 -18 0 -98 -5
-178 -10 -202 -14 -461 -30 -685 -40 -104 -5 -215 -12 -245 -14 -30 -3 -161
-10 -290 -16 -129 -6 -289 -15 -355 -21 -66 -5 -154 -11 -195 -13 -41 -2 -185
-11 -320 -20 -459 -30 -525 -34 -555 -33 -16 1 -109 -7 -205 -16 -173 -17
-308 -26 -404 -26 l-49 -1 9 -122 c4 -68 9 -172 10 -233 0 -60 4 -135 8 -165
3 -30 11 -129 17 -220 5 -91 15 -238 22 -327 7 -94 8 -159 3 -156 -5 4 -6 -14
-2 -43 3 -27 11 -92 17 -144 6 -52 15 -96 20 -98 5 -2 9 -13 8 -25 0 -21 -1
-21 -9 -2 -8 19 -9 19 -9 -2 -1 -12 5 -28 12 -35 10 -10 12 -35 8 -101 -4 -48
-3 -94 1 -101 4 -6 10 -58 14 -114 4 -57 10 -105 15 -107 4 -3 8 -80 8 -173 1
-181 9 -282 22 -282 4 0 6 -78 4 -172 -3 -114 -1 -165 5 -150 5 12 12 22 15
22 2 0 2 -61 -2 -135 -5 -106 -3 -135 7 -135 9 0 11 -13 6 -47 -4 -33 -3 -42
3 -28 8 16 10 11 10 -23 1 -26 5 -41 11 -37 6 4 10 -14 10 -48 0 -30 3 -70 6
-88 4 -26 3 -30 -5 -19 -8 12 -11 8 -11 -18 0 -18 4 -31 9 -28 4 3 8 -25 9
-62 0 -37 3 -80 5 -97 11 -71 18 -199 10 -188 -5 7 -7 -34 -5 -95 2 -59 9
-111 14 -117 7 -7 8 -2 4 15 l-6 25 12 -23 c9 -18 9 -25 0 -31 -8 -5 -9 -17
-3 -39 6 -20 6 -45 0 -64 -11 -41 -12 -61 0 -54 15 10 30 -111 36 -289 4 -93
10 -188 15 -210 6 -22 12 -96 15 -165 5 -112 13 -268 29 -520 3 -47 8 -107 11
-135 3 -27 7 -120 10 -205 3 -85 10 -204 15 -265 5 -60 10 -146 10 -189 l0
-79 72 7 c40 4 75 11 78 15 7 12 94 21 245 25 66 2 127 6 135 9 8 3 65 8 125
11 61 3 180 11 265 16 85 6 187 9 225 6 47 -2 57 -1 30 4 -23 4 41 8 155 9
188 2 368 15 305 21 -52 6 84 17 177 14 48 -1 86 2 83 6 -4 6 121 18 275 24
114 5 190 17 187 29 -1 7 8 11 23 10 105 -11 125 -11 90 -4 -35 8 -34 8 13 10
29 0 46 5 42 11 -4 6 17 10 55 10 34 0 59 4 56 9 -4 5 0 12 6 15 15 6 -298 -2
-352 -10 -31 -4 -33 -3 -15 8 11 7 57 13 105 13 47 1 173 9 280 19 107 9 247
19 310 21 63 2 187 10 275 18 88 8 243 20 345 26 102 7 244 16 315 22 242 18
590 37 595 33 2 -3 8 -62 13 -132 4 -70 11 -145 15 -167 l7 -39 35 32 c19 17
29 32 22 32 -7 0 -10 5 -6 12 4 7 3 8 -5 4 -6 -4 -9 -11 -6 -16 6 -10 -23 -35
-31 -27 -4 3 -9 46 -11 94 -8 148 -18 228 -28 226 -6 0 -66 -4 -135 -7 -69 -3
-156 -8 -195 -10 -38 -2 -56 -1 -40 1 17 2 35 9 40 15 7 7 -2 8 -30 3 -22 -4
-92 -10 -155 -14 -63 -4 -99 -9 -80 -11 19 -2 -17 -7 -80 -11 -63 -4 -196 -13
-295 -20 -99 -7 -250 -14 -335 -15 -123 -2 -377 -14 -515 -25 -17 -1 -16 -2 5
-10 18 -6 9 -7 -30 -4 -30 3 -93 6 -140 6 -72 2 -78 3 -40 9 25 4 38 8 30 10
-21 4 140 18 228 19 39 1 72 4 72 9 0 8 -90 7 -265 -3 -67 -3 -95 -2 -85 5 24
16 -33 13 -77 -4 -21 -8 -76 -17 -123 -21 -47 -3 -96 -8 -110 -11 -22 -4 -23
-3 -5 5 17 8 16 10 -12 10 -17 1 -44 -4 -60 -10 -25 -9 -165 -16 -443 -20
l-85 -2 60 -7 c46 -6 36 -7 -43 -4 -106 4 -160 -8 -131 -28 14 -10 -53 -7
-188 8 -45 5 -63 3 -63 -5 0 -7 24 -11 68 -12 l67 -2 -65 -8 c-100 -14 -179
-18 -380 -22 -109 -3 -160 -1 -125 3 33 4 99 8 146 9 47 1 121 4 164 8 l78 6
-49 13 c-27 7 -65 13 -84 12 -30 -1 -31 -2 -7 -5 15 -2 27 -9 27 -14 0 -7 -34
-7 -97 -2 -107 8 -129 8 -216 -3 -41 -5 -55 -9 -45 -16 9 -6 3 -7 -17 -3 -71
16 -224 -1 -168 -19 11 -4 31 -3 44 2 13 5 53 6 89 2 56 -5 61 -7 37 -14 -16
-5 -52 -6 -81 -3 -36 3 -57 1 -71 -9 -17 -13 -15 -14 25 -14 60 0 44 -10 -25
-16 -37 -3 -54 -1 -50 6 4 6 -7 10 -27 11 -18 1 -26 3 -17 6 11 3 15 11 12 24
-4 15 -14 19 -52 19 -33 0 -42 -3 -31 -10 10 -6 -8 -8 -55 -5 l-70 4 85 -12
c82 -11 84 -11 40 -18 -27 -3 -35 -7 -20 -8 21 -2 22 -3 7 -10 -18 -7 -18 -8
-1 -21 9 -8 19 -14 21 -12 1 1 11 2 21 1 11 -1 9 -4 -8 -10 -17 -6 -8 -7 30
-4 30 3 74 5 97 5 24 -1 43 4 43 9 0 12 108 12 115 0 5 -8 -44 -19 -84 -19
-15 0 -31 -4 -36 -9 -6 -5 -66 -12 -135 -16 -69 -3 -141 -8 -160 -11 -26 -4
-31 -3 -20 5 13 9 12 11 -3 11 -10 0 -26 -4 -35 -9 -27 -13 -72 -22 -71 -14 3
20 -2 34 -11 28 -12 -7 -13 10 -3 45 7 24 8 23 13 -10 5 -32 8 -35 35 -33 17
1 62 3 100 4 58 1 64 3 35 9 -19 4 -27 8 -17 9 16 1 17 3 3 16 -17 17 -49 19
-77 5 -13 -8 -19 -7 -19 0 0 6 6 13 14 16 11 4 13 12 6 30 -8 19 -6 24 6 24 9
0 12 -5 8 -12 -4 -6 -3 -8 4 -4 6 3 10 27 10 54 0 26 -3 41 -5 34 -3 -6 -9 -9
-15 -6 -7 5 -9 -2 -6 -20 3 -14 1 -26 -3 -26 -5 0 -9 24 -9 53 1 49 2 51 16
32 15 -18 15 -10 10 95 -8 143 -22 376 -41 675 -8 127 -17 286 -21 355 -3 69
-8 143 -10 165 -3 22 -5 45 -6 50 0 6 1 15 3 20 1 6 0 39 -4 75 -3 36 -9 124
-12 195 -5 132 -15 324 -21 405 -4 62 -14 309 -18 460 -2 69 -6 132 -9 140 -6
17 -18 207 -22 345 -1 50 -5 126 -8 170 -4 44 -9 143 -12 220 -3 77 -8 185
-11 240 -4 55 -6 121 -5 146 1 25 -3 66 -8 91 -6 24 -13 125 -16 224 -3 98 -9
229 -15 289 -5 61 -14 207 -20 325 -15 317 -38 707 -46 771 -4 39 -3 59 6 64
6 4 120 13 253 20 133 8 319 19 412 24 94 6 208 13 255 15 78 5 165 10 600 36
85 5 184 11 220 13 36 3 164 10 285 16 121 6 288 16 370 21 193 13 272 18 480
30 94 6 229 15 300 20 72 6 236 17 365 26 708 47 813 56 798 66 -8 6 12 7 51
3 77 -8 388 31 412 52 9 7 52 15 99 18 88 6 118 14 59 16 -32 1 -31 2 11 10
25 4 63 7 85 7 38 -1 38 -1 -10 -8 l-50 -7 69 -1 c39 -1 106 7 155 18 47 11
104 23 126 27 33 7 23 9 -60 13 -93 5 -97 6 -55 14 l45 9 -40 6 c-33 5 -25 8
48 13 48 4 92 10 99 14 17 11 -20 34 -55 34 -23 0 -27 3 -22 19 6 21 -3 24
-90 37 -60 8 -72 14 -54 25 9 5 -25 9 -83 9 -54 0 -98 -4 -98 -9z m-3417
-6257 c-7 -3 -9 -12 -6 -20 4 -11 -9 -14 -68 -15 -198 -1 -379 -7 -424 -13
-27 -4 -79 -9 -115 -10 -36 -2 -83 -7 -105 -10 -22 -3 -32 -3 -22 0 14 5 16 9
6 20 -9 11 -7 14 12 16 13 0 34 0 47 -1 12 -1 75 3 140 9 64 6 180 13 257 16
77 3 141 6 142 7 1 1 35 3 75 4 40 1 68 -1 61 -3z"/>
<path d="M4852 5483 l-33 -4 3 -82 c3 -74 5 -82 23 -82 17 0 20 8 23 60 2 33
8 65 13 70 18 17 39 -25 39 -77 0 -45 2 -48 26 -48 26 0 27 1 20 46 -3 26 -6
57 -6 70 0 12 -7 30 -16 38 -15 16 -27 17 -92 9z"/>
<path d="M4667 5462 c-21 -23 -22 -100 -2 -126 10 -14 26 -20 50 -19 35 1 45
-9 24 -23 -7 -4 -23 -7 -37 -8 -34 -1 -39 -23 -8 -37 30 -14 81 3 96 32 6 10
7 56 3 108 l-6 91 -52 0 c-38 0 -56 -5 -68 -18z"/>
<path d="M4443 5460 c-26 -10 -29 -20 -11 -38 8 -8 17 -8 30 -1 21 12 48 5 48
-11 0 -5 -10 -10 -23 -10 -36 0 -67 -27 -67 -60 0 -40 27 -52 91 -44 l51 7 -4
69 c-3 38 -10 74 -15 79 -15 15 -75 20 -100 9z"/>
<path d="M3305 5348 c4 -62 11 -117 15 -122 5 -5 16 -6 25 -2 13 5 16 18 13
65 -3 63 2 77 25 68 9 -3 17 -28 21 -66 6 -51 10 -61 26 -61 21 0 23 6 20 85
-2 63 -22 88 -67 83 -29 -4 -32 -1 -35 27 -2 23 -9 31 -26 33 l-24 4 7 -114z"/>
<path d="M4293 5453 c-32 -4 -33 -6 -33 -51 0 -26 3 -77 7 -114 5 -57 9 -68
24 -68 15 0 19 8 19 35 0 32 2 34 28 30 46 -9 66 16 64 81 -1 38 -7 63 -18 75
-17 19 -26 20 -91 12z"/>
<path d="M4143 5442 c-7 -4 -45 -7 -84 -5 l-72 2 7 -82 c7 -86 13 -101 38 -92
11 5 15 21 14 68 -1 56 1 62 19 62 16 0 21 -8 23 -40 4 -67 11 -85 32 -85 18
0 20 7 20 64 0 67 10 86 35 66 10 -8 15 -31 15 -66 0 -52 1 -54 26 -54 l27 0
-7 67 c-4 39 -14 75 -23 85 -17 19 -49 23 -70 10z"/>
<path d="M3847 5419 c-29 -17 -3 -39 39 -32 27 4 34 2 34 -11 0 -11 -9 -16
-29 -16 -35 0 -61 -23 -61 -54 0 -36 21 -46 86 -44 l58 3 -3 65 c-2 42 -8 71
-18 83 -18 19 -77 23 -106 6z"/>
<path d="M3492 5387 c-29 -31 -30 -95 -2 -125 24 -25 85 -30 115 -9 15 12 16
15 4 23 -8 5 -29 9 -48 9 -19 0 -36 6 -38 13 -3 8 10 12 46 12 47 0 51 2 51
24 0 66 -83 101 -128 53z"/>
<path d="M2980 5311 c0 -86 7 -110 31 -108 16 1 19 9 19 64 0 64 11 83 35 63
10 -8 15 -31 15 -66 0 -52 1 -54 26 -54 l27 0 -6 65 c-9 97 -15 104 -87 103
l-60 -1 0 -66z"/>
<path d="M2765 5345 c-71 -70 12 -196 92 -140 45 32 37 131 -13 154 -37 16
-52 14 -79 -14z"/>
<path d="M6186 4720 l-49 -5 -70 -165 c-52 -122 -72 -180 -75 -222 l-4 -57
106 6 106 6 0 -31 c0 -38 12 -46 56 -38 31 6 34 10 34 41 0 28 4 35 19 35 23
0 30 16 24 58 -4 26 -10 32 -29 32 -22 0 -24 4 -24 45 l0 45 -45 0 -45 0 0
-50 0 -50 -50 0 -49 0 33 78 c19 42 52 119 75 171 23 51 40 96 39 100 -2 3
-25 4 -52 1z"/>
<path d="M5715 4689 c-53 -20 -93 -57 -111 -104 -14 -38 -16 -64 -10 -154 7
-117 20 -163 58 -198 89 -84 250 -57 299 50 28 62 26 67 -30 67 -41 0 -51 -4
-56 -20 -11 -33 -46 -60 -79 -60 -64 1 -87 42 -94 167 -5 104 6 144 44 162 41
18 65 13 100 -24 30 -33 35 -34 78 -29 41 6 46 9 40 28 -10 34 -53 85 -85 102
-39 20 -116 26 -154 13z"/>
<path d="M5220 4638 c0 -45 21 -394 26 -437 l6 -44 156 8 c86 3 160 10 164 14
4 3 5 24 1 45 l-6 38 -113 -7 c-107 -7 -114 -6 -114 11 0 11 -5 103 -12 207
l-12 187 -48 0 c-43 0 -48 -2 -48 -22z"/>
<path d="M4933 4642 c-12 -8 -30 -61 -109 -327 -26 -88 -49 -166 -52 -173 -3
-10 8 -12 49 -10 l53 3 11 45 11 45 90 3 91 3 18 -41 c17 -39 20 -40 67 -40
26 0 48 4 48 9 0 5 -47 116 -104 248 -99 228 -105 238 -132 241 -16 1 -34 -1
-41 -6z"/>
<path d="M4653 4625 c-38 -16 -63 -60 -63 -110 0 -24 -4 -35 -15 -35 -11 0
-15 -11 -15 -40 0 -33 3 -40 20 -40 14 0 20 -7 21 -22 1 -13 4 -75 8 -138 l6
-115 48 -3 47 -3 -5 118 c-3 65 -8 130 -10 146 -4 23 -1 27 18 27 35 0 49 15
45 46 -3 26 -7 29 -36 27 -32 -1 -33 0 -30 35 3 32 7 37 31 40 24 3 27 7 27
43 0 37 -1 39 -32 39 -18 -1 -47 -7 -65 -15z"/>
<path d="M4255 4594 c-89 -46 -110 -99 -100 -254 8 -130 29 -180 89 -215 50
-29 139 -34 184 -11 36 19 78 65 91 99 26 68 7 268 -31 324 -44 65 -162 94
-233 57z m135 -92 c26 -21 39 -79 40 -183 0 -99 -20 -129 -84 -129 -57 0 -74
21 -88 106 -15 101 -7 183 21 205 29 24 82 24 111 1z"/>
<path d="M2823 4521 c-45 -3 -85 -9 -88 -13 -8 -7 11 -434 21 -477 l5 -24 107
7 c120 8 181 30 216 79 19 25 21 43 21 161 0 121 -2 135 -25 180 -41 79 -99
99 -257 87z m150 -110 c25 -24 36 -80 37 -172 0 -91 -14 -115 -75 -129 -83
-20 -82 -21 -89 83 -3 50 -9 124 -12 164 l-6 72 33 4 c51 7 92 -1 112 -22z"/>
<path d="M2474 4499 c-26 -6 -53 -23 -75 -45 l-34 -35 2 -146 c3 -182 11 -215
65 -253 73 -53 176 -35 226 40 23 34 24 39 18 170 -4 74 -11 151 -16 170 -11
40 -53 84 -90 95 -46 12 -55 13 -96 4z m81 -99 c26 -28 42 -263 20 -296 -29
-44 -86 -39 -105 10 -4 13 -10 80 -12 150 -3 117 -1 129 16 142 28 20 60 17
81 -6z"/>
<path d="M2126 4479 c-60 -5 -111 -10 -113 -13 -2 -2 -1 -65 3 -140 l7 -136
43 0 c33 0 46 5 54 20 8 15 21 20 50 20 48 0 63 -22 64 -93 1 -40 -3 -52 -23
-68 -32 -26 -48 -24 -81 11 -22 24 -36 30 -70 30 l-42 0 8 -32 c16 -77 72
-113 161 -106 92 8 144 67 142 163 -1 76 -30 139 -76 163 -27 15 -119 16 -128
2 -14 -23 -25 -7 -25 39 0 46 1 49 31 55 17 3 62 6 100 6 l69 0 0 45 c0 52 18
49 -174 34z"/>
<path d="M1730 4413 c-46 -44 -50 -51 -50 -95 0 -26 5 -48 10 -48 6 0 26 18
46 40 20 22 40 40 44 40 4 0 10 -66 14 -147 4 -82 9 -172 13 -200 6 -51 7 -53
37 -53 60 0 59 -2 47 211 -6 107 -14 218 -17 247 l-5 52 -45 0 c-39 0 -50 -6
-94 -47z"/>
<path d="M3942 4450 c-108 -16 -157 -124 -86 -191 20 -19 38 -24 95 -27 77 -5
100 -22 75 -58 -16 -21 -98 -24 -135 -5 -18 10 -25 8 -46 -16 -31 -36 -31 -39
6 -59 41 -21 166 -21 206 -1 50 26 67 53 67 107 0 27 -6 56 -15 66 -21 26 -73
44 -127 44 -65 0 -88 22 -56 54 18 18 76 21 105 6 16 -9 24 -6 43 17 21 24 23
30 11 42 -18 18 -88 28 -143 21z"/>
<path d="M1465 4385 l-7 -65 -39 0 -39 0 7 61 6 60 -49 -3 -49 -3 -9 -62 c-8
-54 -12 -63 -30 -63 -37 0 -45 -13 -39 -58 5 -38 8 -41 29 -36 19 5 24 2 24
-12 0 -46 -12 -64 -41 -64 -28 0 -29 -2 -29 -45 0 -42 2 -45 26 -45 l27 0 -7
-65 -7 -65 50 0 50 0 5 43 c3 23 7 53 8 67 3 21 9 25 42 28 l39 3 -7 -65 -7
-66 49 0 c49 0 49 0 56 38 3 20 6 52 6 70 0 29 3 32 29 32 37 0 44 10 35 55
-5 29 -11 35 -31 35 -21 0 -24 4 -19 23 3 12 6 27 6 34 0 6 14 14 31 18 28 6
30 9 27 48 -3 37 -6 42 -27 41 -23 -1 -23 1 -17 63 l7 63 -50 0 -49 0 -7 -65z"/>
<path d="M3691 4363 c-11 -43 -23 -93 -27 -110 -8 -40 -19 -42 -32 -5 -5 15
-24 62 -41 104 -28 67 -36 77 -54 74 -12 -3 -32 -5 -44 -5 -13 -1 -23 -5 -23
-10 0 -6 31 -81 70 -168 72 -163 76 -186 42 -225 -8 -10 -23 -18 -34 -18 -13
0 -18 -7 -18 -27 0 -45 13 -57 56 -50 63 10 77 35 139 242 32 105 63 209 70
233 l13 42 -48 0 -48 0 -21 -77z"/>
<path d="M3245 4409 c-22 -5 -51 -18 -65 -29 l-25 -19 29 -30 28 -29 32 19
c17 10 40 19 51 19 32 0 65 -28 65 -56 0 -22 -4 -24 -52 -25 -75 0 -119 -18
-141 -57 -25 -42 -16 -95 23 -134 24 -24 36 -28 82 -28 32 0 62 6 75 15 18 13
23 13 30 2 5 -9 22 -12 50 -9 43 4 43 4 38 41 -2 20 -7 85 -11 144 -5 99 -8
112 -33 139 -15 17 -43 33 -66 38 -47 11 -57 11 -110 -1z"/>
<path d="M5245 3504 c-22 -2 -123 -8 -225 -14 -284 -16 -509 -29 -685 -40 -88
-6 -277 -17 -420 -25 -143 -8 -332 -20 -420 -25 -88 -5 -241 -14 -340 -20 -99
-6 -250 -15 -335 -20 -85 -5 -238 -15 -340 -21 -102 -6 -186 -12 -188 -14 -2
-2 2 -93 9 -204 l13 -201 55 0 c31 0 169 7 306 15 138 9 327 20 420 25 155 9
1247 74 2013 119 172 11 315 21 318 24 2 2 0 64 -6 138 -5 74 -10 164 -10 202
l0 67 -62 -2 c-35 -1 -81 -3 -103 -4z m65 -162 c0 -19 -63 -218 -72 -229 -14
-17 -58 -17 -58 0 0 7 9 18 20 25 20 12 27 50 12 68 -5 5 -21 37 -35 72 l-26
62 23 0 c20 0 27 -9 42 -49 10 -28 21 -48 25 -46 4 3 12 27 19 55 9 38 16 50
31 50 10 0 19 -4 19 -8z m-205 -8 c18 -7 45 -54 45 -79 0 -10 -10 -15 -32 -15
-48 0 -78 -10 -78 -26 0 -19 44 -28 68 -15 15 8 21 7 25 -3 9 -22 -14 -36 -58
-36 -57 0 -78 25 -79 91 -1 42 3 54 23 70 24 19 56 24 86 13z m-171 -17 c18
-13 34 -78 35 -139 1 -21 -4 -28 -19 -28 -20 0 -27 21 -32 100 -3 30 -7 35
-28 35 -24 0 -25 -3 -28 -72 -2 -63 -5 -73 -21 -73 -15 0 -19 11 -24 68 -11
114 -12 112 28 110 19 -1 38 2 42 5 10 11 27 8 47 -6z m-306 -100 l3 -87 -28
1 c-15 0 -38 -2 -50 -6 -16 -5 -29 0 -47 19 -23 22 -26 34 -26 91 0 58 2 65
20 65 17 0 20 -7 20 -53 0 -64 19 -98 47 -81 15 10 18 23 16 79 -2 63 -2 66
20 63 21 -3 22 -9 25 -91z m-225 72 c51 -23 64 -113 22 -154 -49 -50 -113 -21
-122 56 -6 52 8 86 40 99 30 12 32 12 60 -1z m-1800 -48 c18 -18 -4 -32 -39
-25 -38 7 -64 -8 -64 -36 0 -20 19 -30 59 -30 66 0 95 -68 49 -117 -17 -18
-32 -23 -72 -23 -63 0 -85 12 -67 34 9 11 19 13 37 5 31 -11 71 -2 78 17 11
28 -5 44 -43 44 -54 0 -81 23 -81 69 0 37 16 61 50 74 20 8 81 0 93 -12z m91
3 c3 -9 6 -27 6 -40 0 -21 2 -23 18 -13 28 17 71 3 82 -27 6 -14 10 -52 10
-85 0 -52 -2 -59 -20 -59 -17 0 -20 7 -20 50 0 28 1 52 3 53 6 9 -27 37 -43
37 -25 0 -32 -25 -24 -87 5 -44 3 -54 -10 -59 -9 -4 -20 -3 -24 0 -7 8 -21
227 -15 239 7 13 31 7 37 -9z m1086 -28 c0 -60 15 -96 39 -96 26 0 34 30 26
91 -7 48 -6 49 19 49 25 0 26 -1 26 -69 0 -38 3 -77 6 -86 6 -14 1 -16 -22
-14 -16 1 -37 -2 -48 -6 -28 -12 -69 7 -77 35 -4 14 -7 51 -8 83 -1 51 1 57
19 57 17 0 20 -7 20 -44z m-104 26 c20 -13 34 -50 34 -91 0 -46 -34 -81 -81
-81 -61 0 -96 113 -49 160 20 20 74 27 96 12z m-233 -52 c11 -27 24 -50 27
-50 3 0 12 23 19 50 10 38 17 50 32 50 10 0 19 -3 19 -6 0 -9 -50 -175 -62
-206 -12 -31 -44 -46 -62 -28 -8 9 -6 16 12 27 29 20 28 38 -8 118 -34 76 -37
95 -14 95 9 0 24 -20 37 -50z m-158 15 c14 -13 25 -36 25 -50 0 -23 -4 -25
-42 -25 -24 0 -50 -5 -58 -10 -13 -8 -13 -11 3 -27 14 -14 22 -16 47 -6 23 9
32 8 40 -2 15 -18 -16 -35 -64 -35 -59 0 -83 37 -77 115 3 28 47 65 77 65 14
0 36 -11 49 -25z m-327 -12 c15 -14 22 -36 27 -89 l6 -71 -63 -1 c-70 -1 -88
8 -88 48 0 34 15 47 59 52 40 4 51 22 22 38 -15 7 -27 8 -40 1 -14 -8 -22 -7
-31 3 -27 33 72 50 108 19z"/>
<path d="M1989 3280 c-97 -17 -154 -92 -147 -195 4 -73 31 -116 90 -146 126
-64 267 20 268 159 0 118 -96 202 -211 182z m107 -100 c21 -8 24 -14 16 -22
-7 -7 -12 -23 -12 -36 0 -58 -62 -112 -128 -112 -38 0 -50 15 -19 24 13 3 18
9 12 13 -21 15 -41 59 -43 91 -2 32 -2 32 20 18 46 -28 62 -28 80 4 18 32 32
36 74 20z"/>
<path d="M6280 1573 c0 -70 11 -124 24 -120 6 2 12 14 14 26 l4 23 14 -21 c18
-25 66 -28 88 -5 23 23 20 27 -18 20 -19 -4 -37 -2 -40 3 -4 5 10 11 31 13 44
4 52 19 24 47 -26 26 -55 27 -81 1 -27 -27 -30 -26 -30 20 0 29 -4 40 -15 40
-11 0 -15 -12 -15 -47z"/>
<path d="M5810 1593 c-58 -22 -77 -88 -39 -137 28 -36 99 -38 125 -3 l17 23
23 -23 c29 -29 49 -29 79 1 23 23 24 23 41 5 22 -24 59 -24 83 0 17 17 21 18
32 4 8 -9 24 -13 41 -11 18 3 27 0 25 -6 -2 -6 -18 -10 -35 -9 -40 4 -51 -14
-18 -28 31 -15 75 -4 84 21 4 10 5 46 4 79 l-4 60 -45 -3 c-29 -2 -50 -9 -58
-19 -11 -15 -14 -16 -25 -2 -17 21 -66 19 -88 -3 -15 -15 -20 -16 -31 -5 -16
18 -76 16 -91 -2 -8 -9 -30 -15 -56 -15 -32 0 -44 -4 -44 -15 0 -10 10 -15 26
-15 22 0 25 -2 14 -15 -26 -31 -90 -5 -90 37 0 27 37 51 69 45 31 -6 51 7 35
23 -13 12 -56 20 -74 13z"/>
<path d="M5598 1548 l-3 -33 -20 23 c-24 27 -35 28 -35 2 0 -16 -7 -20 -35
-20 -31 0 -36 -3 -41 -30 -8 -38 -19 -38 -33 1 -14 39 -33 33 -46 -15 l-11
-37 -12 36 c-8 19 -19 35 -27 35 -10 0 -8 -13 8 -55 12 -30 27 -55 34 -55 6 0
17 16 23 37 l13 36 13 -31 c19 -45 42 -41 50 8 8 47 24 43 24 -6 0 -19 5 -34
10 -34 6 0 10 23 10 52 0 61 19 55 29 -9 6 -36 9 -38 41 -38 34 0 35 1 40 45
4 37 9 45 25 45 16 0 21 -8 23 -42 4 -53 32 -62 32 -10 0 50 -21 82 -52 80
-20 -1 -28 4 -32 23 -9 34 -24 30 -28 -8z"/>
<path d="M4818 1510 c-25 -26 -29 -36 -24 -62 15 -74 92 -103 141 -54 22 22
24 22 28 5 9 -34 27 -20 27 20 0 29 6 42 23 54 25 17 17 34 -10 22 -10 -5 -24
-7 -30 -6 -7 1 -13 -5 -13 -12 0 -8 -6 -15 -12 -14 -39 1 -68 -4 -68 -13 0 -5
11 -10 25 -10 30 0 32 -11 7 -33 -25 -22 -48 -21 -72 3 -26 26 -26 64 1 91 19
19 29 19 77 2 6 -3 12 2 12 10 0 38 -73 36 -112 -3z"/>
<path d="M3560 1500 c-8 -14 -21 -20 -47 -20 -35 0 -36 0 -30 -35 5 -28 2 -38
-14 -48 -24 -15 -24 -34 1 -49 13 -9 20 -24 20 -45 0 -30 3 -33 32 -33 18 0
41 -9 54 -21 l22 -20 20 25 c14 18 29 26 52 26 30 0 32 2 28 30 -3 21 1 35 14
47 23 21 23 40 -2 53 -14 8 -20 21 -20 46 0 34 -1 35 -33 29 -25 -5 -37 -2
-51 14 -24 26 -32 26 -46 1z m56 -33 c8 3 14 0 14 -6 0 -6 5 -11 11 -11 16 0
41 -29 34 -39 -3 -5 -1 -12 3 -15 12 -7 3 -56 -10 -56 -6 0 -8 -7 -4 -15 3 -9
0 -15 -8 -15 -8 0 -16 -4 -18 -10 -4 -12 -88 -20 -88 -8 0 4 -7 8 -15 8 -8 0
-15 7 -15 15 0 8 -5 15 -11 15 -6 0 -9 7 -6 15 4 8 2 17 -2 19 -11 7 -1 56 11
56 6 0 8 7 4 15 -3 9 0 15 9 15 8 0 15 5 15 11 0 6 7 9 15 6 8 -4 17 -1 21 4
4 7 10 7 16 1 6 -6 17 -8 24 -5z"/>
<path d="M5189 1468 l-12 -43 -12 34 c-11 35 -35 54 -35 30 0 -10 -3 -10 -12
-1 -18 18 -63 14 -81 -6 -23 -25 -21 -58 3 -82 34 -34 83 -20 95 27 l7 28 14
-33 c15 -38 37 -38 42 -1 6 41 19 43 32 4 6 -20 17 -34 23 -32 14 4 43 104 33
114 -9 10 -18 -3 -25 -39 l-8 -33 -16 38 c-9 20 -21 37 -26 37 -6 0 -16 -19
-22 -42z"/>
<path d="M1555 1390 c-86 -26 -137 -138 -101 -223 40 -95 154 -130 243 -76 75
47 98 158 48 232 -41 59 -122 88 -190 67z m86 -116 c39 -19 69 -37 67 -39 -8
-8 -129 -85 -133 -85 -3 0 -5 7 -5 15 0 13 -4 14 -20 5 -19 -10 -20 -8 -20 54
0 54 3 64 15 60 9 -4 15 0 15 10 0 21 0 21 81 -20z"/>
<path d="M5470 1119 c-36 -4 -78 -5 -94 -2 -37 7 -276 -18 -276 -29 0 -4 -28
-8 -62 -8 -34 0 -59 -3 -55 -6 3 -3 65 -3 137 1 73 4 127 10 122 14 -6 3 64 7
155 7 137 2 163 -1 159 -12 -3 -8 -1 -38 5 -67 5 -29 7 -78 3 -112 l-8 -60
-11 80 -12 80 0 -105 c-1 -58 2 -118 6 -135 l7 -30 5 32 c3 18 2 30 -3 27 -4
-3 -8 0 -8 5 0 6 4 11 9 11 5 0 14 12 19 28 9 24 11 24 11 5 1 -34 16 -35 34
-3 10 16 23 27 30 24 7 -2 32 9 55 26 45 32 57 37 46 18 -4 -8 -3 -10 2 -5 5
5 9 14 9 20 1 7 7 11 15 9 8 -2 12 0 8 4 -4 4 0 13 10 21 9 7 -23 -8 -73 -34
-49 -26 -92 -50 -93 -55 -10 -23 -22 10 -22 58 0 34 -4 53 -10 49 -6 -3 -10 4
-11 17 0 13 -4 46 -8 74 -6 41 -4 51 6 47 7 -3 13 0 13 6 0 12 -23 12 -120 0z"/>
</g>
</svg>
